# xmcd
#
# Track frame offsets: 
#        150
#        7854
#        19834
#        32449
#        47722
#        59758
#        73076
#        84616
#        94208
#        113289
#        128741
#        137667
#        151960
#
# Disc length: 2239 seconds
#
# Revision: 0
# Processed by: cddbd v1.5.2PL0 Copyright (c) Steve Scherf et al.
# Submitted via: ExactAudioCopy v1.0b3
#
DISCID=a008bd0d
DTITLE=Taj Mahal - De Ole Folks At Home
DYEAR=1969
DGENRE=Blues
TTITLE0=Linin' Track
TTITLE1=Country Blues #1
TTITLE2=Wild Ox Moan
TTITLE3=Light Rain Blues
TTITLE4=A Little Soulful Tune
TTITLE5=Candy Man
TTITLE6=Cluck Old Hen
TTITLE7=Colored Aristocracy
TTITLE8=Blind Boy Rag
TTITLE9=Stagger Lee
TTITLE10=Cajun Tune
TTITLE11=Fishin' Blues
TTITLE12=Annie's Lover
EXTD=
EXTT0=
EXTT1=
EXTT2=
EXTT3=
EXTT4=
EXTT5=
EXTT6=
EXTT7=
EXTT8=
EXTT9=
EXTT10=
EXTT11=
EXTT12=
PLAYORDER=
